HIERARCHY
ROOT Hips
{
 OFFSET 0.000000 0.000000 0.000000
 CHANNELS 6 Xposition Yposition Zposition Yrotation Xrotation Zrotation
 JOINT Chest
 {
  OFFSET 0.000000 9.581000 -0.001100
  CHANNELS 3 Yrotation Xrotation Zrotation
  JOINT Chest2
  {
   OFFSET 0.000000 9.561100 0.002200
   CHANNELS 3 Yrotation Xrotation Zrotation
   JOINT Chest3
   {
    OFFSET 0.000000 9.521100 0.000000
    CHANNELS 3 Yrotation Xrotation Zrotation
    JOINT Chest4
    {
     OFFSET 0.000000 9.511400 0.000000
     CHANNELS 3 Yrotation Xrotation Zrotation
     JOINT Neck
     {
      OFFSET 0.000000 14.375100 0.000000
      CHANNELS 3 Yrotation Xrotation Zrotation
      JOINT Head
      {
       OFFSET 0.000000 8.901200 0.004600
       CHANNELS 3 Yrotation Xrotation Zrotation
       End Site
       {
        OFFSET 0.000000 16.962200 0.002400
       }
      }
     }
     JOINT RightCollar
     {
      OFFSET -2.920100 9.518800 0.000000
      CHANNELS 3 Yrotation Xrotation Zrotation
      JOINT RightShoulder
      {
       OFFSET -13.664500 0.000000 0.000000
       CHANNELS 3 Yrotation Xrotation Zrotation
       JOINT RightElbow
       {
        OFFSET 0.000000 -29.999200 0.000000
        CHANNELS 3 Yrotation Xrotation Zrotation
        JOINT RightWrist
        {
         OFFSET 0.000000 -24.253600 0.000000
         CHANNELS 3 Yrotation Xrotation Zrotation
         End Site
         {
          OFFSET 0.000000 -17.918900 0.000000
         }
        }
       }
      }
     }
     JOINT LeftCollar
     {
      OFFSET 2.920100 9.518800 0.000000
      CHANNELS 3 Yrotation Xrotation Zrotation
      JOINT LeftShoulder
      {
       OFFSET 13.664500 0.000000 0.000000
       CHANNELS 3 Yrotation Xrotation Zrotation
       JOINT LeftElbow
       {
        OFFSET 0.000000 -29.999200 0.000000
        CHANNELS 3 Yrotation Xrotation Zrotation
        JOINT LeftWrist
        {
         OFFSET 0.000000 -24.253600 0.000000
         CHANNELS 3 Yrotation Xrotation Zrotation
         End Site
         {
          OFFSET 0.000000 -17.918900 0.000000
         }
        }
       }
      }
     }
    }
   }
  }
 }
 JOINT RightHip
 {
  OFFSET -7.797300 0.005300 0.000500
  CHANNELS 3 Yrotation Xrotation Zrotation
  JOINT RightKnee
  {
   OFFSET 0.000000 -40.663400 -0.000500
   CHANNELS 3 Yrotation Xrotation Zrotation
   JOINT RightAnkle
   {
    OFFSET 0.000000 -39.523700 -0.000900
    CHANNELS 3 Yrotation Xrotation Zrotation
    JOINT RightToe
    {
     OFFSET 0.000000 -6.418000 14.485300
     CHANNELS 3 Yrotation Xrotation Zrotation
     End Site
     {
      OFFSET 0.000000 -1.465200 6.326400
     }
    }
   }
  }
 }
 JOINT LeftHip
 {
  OFFSET 7.797300 0.005300 0.000500
  CHANNELS 3 Yrotation Xrotation Zrotation
  JOINT LeftKnee
  {
   OFFSET 0.000000 -40.663400 -0.000500
   CHANNELS 3 Yrotation Xrotation Zrotation
   JOINT LeftAnkle
   {
    OFFSET 0.000000 -39.523700 -0.000900
    CHANNELS 3 Yrotation Xrotation Zrotation
    JOINT LeftToe
    {
     OFFSET 0.000000 -6.418000 14.485300
     CHANNELS 3 Yrotation Xrotation Zrotation
     End Site
     {
      OFFSET 0.000000 -1.465200 6.326400
     }
    }
   }
  }
 }
}
MOTION
Frames: 12
Frame Time: 0.008333
0.000000 86.422400 0.000000 0.000000 -5.767877 0.000000 0.000000 11.653817 0.000000 0.000000 -5.885947 0.000000 0.000000 -0.000000 0.000000 0.000000 -0.000000 0.000000 0.000000 12.528835 0.000000 0.000000 0.711642 0.000000 0.000000 -0.000000 0.000000 0.000000 0.000000 -90.000000 0.000000 -2.309062 0.000000 0.000000 2.309062 0.000000 0.000000 -0.000000 0.000000 0.000000 -0.000000 90.000000 0.000000 -2.309062 0.000000 0.000000 2.309062 0.000000 0.000000 8.520406 0.000000 0.000000 1.905762 0.000000 -0.000000 -4.658285 0.000000 0.000000 -0.000000 0.000000 0.000000 8.520406 0.000000 0.000000 1.905762 0.000000 -0.000000 -4.658285 0.000000 0.000000 -0.000000 0.000000
-9.527305 126.538156 4.097782 166.011224 -30.977058 -2.533860 3.667142 23.114568 0.649821 0.509737 3.392109 0.000154 0.784588 5.522891 0.008965 3.046015 19.378002 0.427533 5.272599 15.420015 -5.448496 7.063088 -9.243263 -7.207488 0.043736 -4.584764 -0.709665 6.653960 -18.244366 -3.637909 68.407885 -55.562105 -53.296854 6.389350 18.983985 -27.792176 -11.028145 -5.303034 2.234627 -10.570547 -25.656344 3.844615 -65.719717 -50.567959 57.767221 -32.599876 20.984517 5.398906 -6.069756 -51.729375 7.922241 -107.995938 85.530100 -108.136084 14.415381 -26.008533 3.630002 0.001602 -0.015522 0.000710 -7.822994 -44.708563 -1.582081 61.339782 80.237297 57.304199 3.582589 -9.440118 0.103569 0.015341 0.004286 0.006798
-9.529005 126.539225 4.097016 166.018945 -30.984111 -2.523754 3.680023 23.101567 0.649733 0.517100 3.380472 0.003274 0.794124 5.505198 0.009443 3.019859 19.411288 0.430223 5.266092 15.428585 -5.432826 6.994052 -9.192603 -7.125313 0.059976 -4.640318 -0.679812 6.659644 -18.238920 -3.638036 68.319832 -55.528968 -53.201121 6.395637 18.994651 -27.779721 -11.030337 -5.311224 2.238452 -10.572311 -25.756017 3.863338 -65.563957 -50.505680 57.575313 -32.581749 20.976029 5.430062 -6.027053 -51.721980 7.915953 -108.110356 85.525683 -108.291955 14.369011 -26.001111 3.629487 -0.011650 -0.012941 -0.005161 -7.705393 -44.689731 -1.641639 61.266948 80.234638 57.260085 3.542892 -9.453373 0.140604 0.015046 0.008258 0.006668
-9.530349 126.539984 4.097062 166.029417 -30.987293 -2.519158 3.674841 23.099145 0.643929 0.523512 3.372212 0.005815 0.814720 5.478487 0.013347 3.034114 19.395988 0.438393 5.227265 15.474645 -5.398387 6.920672 -9.136509 -7.053311 0.043422 -4.658907 -0.645847 6.651167 -18.212363 -3.642529 68.270324 -55.544464 -53.113989 6.416722 19.030206 -27.788723 -11.065552 -5.280027 2.238004 -10.560402 -25.782569 3.864319 -65.513693 -50.490043 57.493344 -32.577027 20.975833 5.446797 -5.978434 -51.712612 7.898202 -107.995868 85.507657 -108.172605 14.335196 -25.993957 3.619300 -0.007020 -0.012359 -0.003110 -7.650936 -44.680626 -1.672616 61.275372 80.225417 57.264111 3.520280 -9.463465 0.175150 0.006977 0.009753 0.003092
-9.530850 126.541070 4.096913 166.040293 -30.994345 -2.520756 3.687517 23.084937 0.657218 0.513487 3.380509 0.002516 0.829999 5.456819 0.019288 3.090168 19.327839 0.467359 5.145141 15.566692 -5.336038 6.870368 -9.079360 -7.034250 -0.005265 -4.632971 -0.625404 6.630730 -18.149158 -3.657462 68.274830 -55.563648 -53.082600 6.413773 19.000216 -27.754237 -11.100608 -5.284075 2.222204 -10.566056 -25.727510 3.838752 -65.453226 -50.438166 57.429913 -32.546666 20.930277 5.461283 -5.930449 -51.699929 7.894650 -107.861310 85.480509 -108.030197 14.314049 -25.964143 3.544424 -0.000778 -0.006875 -0.000345 -7.604682 -44.667044 -1.694457 61.286997 80.226868 57.267139 3.513351 -9.479411 0.208719 -0.000808 0.011649 -0.000358
-9.532860 126.541953 4.096506 166.054047 -31.001124 -2.516328 3.700600 23.067066 0.665959 0.514367 3.374863 0.004353 0.831527 5.448308 0.022211 3.094618 19.314021 0.482895 5.106106 15.616950 -5.307391 6.817841 -9.028292 -6.990576 -0.004683 -4.657627 -0.610647 6.615004 -18.128259 -3.651668 68.212786 -55.525148 -52.999659 6.416616 18.956328 -27.725033 -11.116711 -5.283769 2.211446 -10.545698 -25.719210 3.826320 -65.385491 -50.350064 57.378512 -32.497832 20.869213 5.506411 -5.875252 -51.688343 7.902275 -107.912078 85.469512 -108.121957 14.246385 -25.952462 3.517999 -0.008103 -0.003163 -0.003590 -7.526417 -44.652740 -1.738324 61.182864 80.240688 57.169756 3.513452 -9.488990 0.244251 -0.004408 0.011944 -0.001953
-9.533022 126.542277 4.097538 166.070756 -31.002110 -2.527815 3.713289 23.041597 0.688625 0.537929 3.340185 0.021043 0.808321 5.468459 0.012861 3.096562 19.305663 0.502226 5.071551 15.666695 -5.303020 6.766916 -8.983302 -6.933595 0.005088 -4.686514 -0.605566 6.611249 -18.154846 -3.620671 68.090914 -55.441657 -52.857089 6.429671 18.918444 -27.697816 -11.126233 -5.287121 2.197090 -10.519597 -25.711467 3.812770 -65.333445 -50.290253 57.313984 -32.485357 20.855046 5.597607 -5.844142 -51.679176 7.926846 -107.689709 85.424213 -107.890668 14.207932 -25.923987 3.463206 0.004379 -0.001266 0.001940 -7.490577 -44.648946 -1.740594 61.110616 80.260858 57.085110 3.503829 -9.494516 0.292845 -0.011829 0.009701 -0.005242
-9.533350 126.542537 4.098320 166.096778 -31.004293 -2.544104 3.717546 23.019968 0.712880 0.524909 3.350502 0.017946 0.840983 5.411461 0.041534 3.056716 19.354603 0.488566 5.053495 15.685675 -5.264076 6.729083 -8.937586 -6.912229 0.012053 -4.702064 -0.605895 6.622764 -18.194155 -3.596958 68.087287 -55.394699 -52.773066 6.406722 18.946621 -27.724486 -11.118494 -5.313972 2.196316 -10.495308 -25.702606 3.802258 -65.294286 -50.246213 57.249225 -32.461869 20.833286 5.646027 -5.823866 -51.667892 7.962265 -107.548636 85.388013 -107.770947 14.156812 -25.904124 3.439373 0.005327 -0.000770 0.002360 -7.469983 -44.647870 -1.720172 61.037949 80.293867 56.992985 3.482837 -9.500298 0.331833 -0.007400 0.003315 -0.003279
-9.535389 126.542890 4.098083 166.122021 -31.009885 -2.549567 3.715381 23.004378 0.728808 0.513481 3.359482 0.011968 0.850092 5.391394 0.051272 3.057102 19.332328 0.509471 5.022083 15.734324 -5.240760 6.699052 -8.896099 -6.894380 0.033126 -4.737229 -0.606803 6.618519 -18.164642 -3.595736 68.046178 -55.349268 -52.688271 6.386876 18.970033 -27.754139 -11.121577 -5.311969 2.174493 -10.481432 -25.682713 3.789074 -65.268538 -50.229025 57.202122 -32.464200 20.829544 5.689100 -5.793278 -51.653919 7.982225 -107.363682 85.341980 -107.612451 14.127445 -25.885373 3.417977 0.007262 0.000007 0.003217 -7.478824 -44.642166 -1.722984 61.063241 80.298380 56.980211 3.486878 -9.509113 0.369852 -0.019940 0.001701 -0.008835
-9.544974 126.543251 4.094980 166.192411 -31.018443 -2.531030 3.654789 22.997953 0.691707 0.511573 3.354589 0.014174 0.852608 5.385644 0.054177 3.054292 19.309502 0.526630 4.998900 15.777153 -5.225363 6.672714 -8.864058 -6.866749 0.047825 -4.771531 -0.598676 6.608243 -18.104758 -3.610100 68.054478 -55.332504 -52.645193 6.382112 18.962396 -27.751559 -11.129795 -5.310649 2.159500 -10.475906 -25.668145 3.789451 -65.217517 -50.167088 57.139962 -32.421943 20.797862 5.744508 -5.753347 -51.640431 7.933683 -107.500374 85.309699 -107.829762 14.103800 -25.896908 3.438332 -0.019376 -0.003043 -0.008585 -7.475869 -44.642692 -1.761942 61.079726 80.317499 56.917897 3.487336 -9.510723 0.456727 -0.056359 -0.007399 -0.024967
-9.546685 126.542866 4.095593 166.228177 -31.016445 -2.546231 3.651679 22.978212 0.713462 0.536861 3.329609 0.030054 0.816420 5.408196 0.039900 3.052682 19.291317 0.542625 4.979493 15.810527 -5.224637 6.660949 -8.850421 -6.853359 0.057085 -4.802213 -0.589627 6.645622 -18.111122 -3.612520 67.982375 -55.279174 -52.539743 6.414906 18.916317 -27.689692 -11.137916 -5.322897 2.151958 -10.479639 -25.660957 3.802980 -65.142058 -50.109141 57.056368 -32.372688 20.769227 5.801450 -5.743647 -51.631867 7.962454 -107.371292 85.267215 -107.738134 14.094447 -25.885140 3.418032 -0.016802 -0.004036 -0.007444 -7.498071 -44.646818 -1.726097 61.040784 80.345625 56.837435 3.469309 -9.511471 0.493219 -0.049986 -0.012459 -0.022142
-9.545468 126.542517 4.096963 166.244504 -31.014081 -2.569847 3.676292 22.960879 0.753709 0.519053 3.334302 0.026203 0.809573 5.411211 0.037279 3.054542 19.278997 0.553148 4.974265 15.820761 -5.217458 6.651410 -8.840240 -6.841596 0.079897 -4.854674 -0.571436 6.686598 -18.114944 -3.620321 67.909695 -55.232639 -52.435162 6.426863 18.902054 -27.655519 -11.138591 -5.354619 2.157969 -10.492317 -25.645061 3.812824 -65.057188 -50.069037 56.979088 -32.338488 20.746422 5.854872 -5.730255 -51.622238 8.023288 -107.194487 85.219639 -107.597355 14.064191 -25.874819 3.403389 -0.005617 -0.002827 -0.002489 -7.515735 -44.649551 -1.668635 60.985587 80.377520 56.753071 3.442935 -9.513975 0.509028 -0.022809 -0.008574 -0.010105
